# xmcd
#
# Track frame offsets:
#	150
#	2800
#	30812
#	54230
#	64910
#	79490
#	104950
#	124767
#	159400
#	179315
#	194272
#	206950
#	219837
#	243082
#	255955
#
# Disc length: 3684 seconds
#
# Revision: 0
# Processed by: cddbd v1.5.1PL0 Copyright (c) Steve Scherf et al.
# Submitted via: dBpowerAMP V4.0
#
DISCID=c70e620f
DTITLE=Hinsons - Live and On Stage
DYEAR=1900
DGENRE=Gospel
TTITLE0=Nelson Parkerson Introduces The Hinsons
TTITLE1=He Is Leading The Way
TTITLE2=Jesus Found Me
TTITLE3=Introduction
TTITLE4=King Jesus
TTITLE5=Touch Of The Master's Strong Hand
TTITLE6=Ain't That What It's All About
TTITLE7=I Never Shall Forget The Day
TTITLE8=Little Store Front Church
TTITLE9=Since You Gave Me A Song
TTITLE10=Sea Walker
TTITLE11=I Won't Walk Without Jesus
TTITLE12=Living In Canaan
TTITLE13=Hallelujah Meetin'
TTITLE14=The Lighthouse
EXTD=
EXTT0=
EXTT1=
EXTT2=
EXTT3=
EXTT4=
EXTT5=
EXTT6=
EXTT7=
EXTT8=
EXTT9=
EXTT10=
EXTT11=
EXTT12=
EXTT13=
EXTT14=
PLAYORDER=
